<svg width="31" height="21" viewBox="0 0 31 21" fill="none" xmlns="http://www.w3.org/2000/svg">
<path d="M0.367523 11.1564L9.25586 20.1899C9.49502 20.4221 9.81442 20.5502 10.1457 20.5469C10.477 20.5436 10.7938 20.4091 11.0284 20.1722C11.263 19.9353 11.3967 19.6148 11.4008 19.2794C11.405 18.9439 11.2793 18.6202 11.0506 18.3774L4.37012 11.5891H29.1169C29.2896 11.5998 29.4627 11.5746 29.6254 11.515C29.7881 11.4555 29.937 11.3629 30.0631 11.2428C30.1891 11.1228 30.2895 10.9779 30.3582 10.8171C30.4268 10.6563 30.4622 10.483 30.4622 10.3078C30.4622 10.1326 30.4268 9.95931 30.3582 9.7985C30.2895 9.6377 30.1891 9.49283 30.0631 9.3728C29.937 9.25278 29.7881 9.16014 29.6254 9.1006C29.4627 9.04106 29.2896 9.01587 29.1169 9.02659H4.27042L11.0459 2.24302C11.1748 2.127 11.2789 1.98557 11.352 1.82738C11.4251 1.6692 11.4655 1.49758 11.4708 1.32303C11.476 1.14849 11.4461 0.974679 11.3828 0.812251C11.3194 0.649823 11.224 0.502188 11.1024 0.378379C10.9808 0.254571 10.8355 0.157193 10.6754 0.0922037C10.5153 0.0272144 10.3439 -0.00401955 10.1714 0.000413739C9.99903 0.00484703 9.82933 0.0448548 9.67272 0.117987C9.5161 0.19112 9.37587 0.29584 9.26061 0.425739L0.372272 9.33908C0.254265 9.45831 0.160641 9.59995 0.0967616 9.75586C0.0328821 9.91178 0 10.0789 0 10.2477C0 10.4165 0.0328821 10.5837 0.0967616 10.7396C0.160641 10.8955 0.254265 11.0371 0.372272 11.1564H0.367523Z" fill="#A6ABFF"/>
</svg>
