<svg width="19" height="15" viewBox="0 0 19 15" fill="none" xmlns="http://www.w3.org/2000/svg">
    <path fill-rule="evenodd" clip-rule="evenodd" d="M14.9415 0.349169L12.1515 3.13917C11.8315 3.45917 12.0515 3.99917 12.5015 3.99917H14.2915V10.8792C14.2915 11.8792 13.6215 12.8092 12.6315 12.9692C11.3815 13.1792 10.2915 12.2092 10.2915 10.9992V4.16917C10.2915 2.07917 8.76153 0.219169 6.68153 0.0191695C4.30153 -0.210831 2.29153 1.65917 2.29153 3.99917V10.9992H0.501535C0.0515345 10.9992 -0.168466 11.5392 0.151534 11.8492L2.94153 14.6392C3.14153 14.8392 3.45153 14.8392 3.65153 14.6392L6.44153 11.8492C6.75153 11.5392 6.53153 10.9992 6.08153 10.9992H4.29153V4.11917C4.29153 3.11917 4.96153 2.18917 5.95153 2.02917C7.20153 1.81917 8.29153 2.78917 8.29153 3.99917V10.8292C8.29153 12.9192 9.82153 14.7792 11.9015 14.9792C14.2815 15.2092 16.2915 13.3392 16.2915 10.9992V3.99917H18.0815C18.5315 3.99917 18.7515 3.45917 18.4315 3.14917L15.6415 0.35917C15.4515 0.15917 15.1315 0.159169 14.9415 0.349169Z" fill="white"/>
</svg>
