<svg width="16" height="19" viewBox="0 0 16 19" fill="none" xmlns="http://www.w3.org/2000/svg">
    <path fill-rule="evenodd" clip-rule="evenodd" d="M1.14177 3.84913L3.93177 6.63913C4.25177 6.95913 4.79177 6.73913 4.79177 6.28913L4.79177 4.49913H11.6718C12.6718 4.49913 13.6018 5.16913 13.7618 6.15913C13.9718 7.40913 13.0018 8.49913 11.7918 8.49913H4.96177C2.87177 8.49913 1.01177 10.0291 0.811772 12.1091C0.581772 14.4891 2.45177 16.4991 4.79177 16.4991L11.7918 16.4991V18.2891C11.7918 18.7391 12.3318 18.9591 12.6418 18.6391L15.4318 15.8491C15.6318 15.6491 15.6318 15.3391 15.4318 15.1391L12.6418 12.3491C12.3318 12.0391 11.7918 12.2591 11.7918 12.7091V14.4991L4.91177 14.4991C3.91177 14.4991 2.98177 13.8291 2.82177 12.8391C2.61177 11.5891 3.58177 10.4991 4.79177 10.4991H11.6218C13.7118 10.4991 15.5718 8.96913 15.7718 6.88913C16.0018 4.50913 14.1318 2.49913 11.7918 2.49913L4.79177 2.49913V0.709129C4.79177 0.259129 4.25177 0.0391309 3.94177 0.359131L1.15177 3.14913C0.951772 3.33913 0.951772 3.65913 1.14177 3.84913Z" fill="#4e54c8"/>
</svg>
